<svg xmlns="http://www.w3.org/2000/svg" xmlns:xlink="http://www.w3.org/1999/xlink" width="21" height="21" viewBox="0 0 21 21">
  <defs>
    <clipPath id="clip-path">
      <rect id="Retângulo_22" data-name="Retângulo 22" width="21" height="21" transform="translate(62 451)" fill="#fff"/>
    </clipPath>
  </defs>
  <g id="Grupo_2" data-name="Grupo 2" transform="translate(-62 -451)" clip-path="url(#clip-path)">
    <path id="Caminho_19" data-name="Caminho 19" d="M66.213,467.651l3.368-.976,2.909,5.319a.01.01,0,0,0,.018,0l2.909-5.319,3.368.976a.009.009,0,0,0,.012-.012l-.977-3.3,5.173-2.829a.01.01,0,0,0,0-.017l-5.215-2.852,1.019-3.446a.01.01,0,0,0-.012-.013l-3.447,1-2.83-5.175a.01.01,0,0,0-.018,0l-2.83,5.175-3.447-1a.01.01,0,0,0-.012.013l1.019,3.446-5.215,2.852a.01.01,0,0,0,0,.017l5.173,2.829-.977,3.3A.009.009,0,0,0,66.213,467.651Zm2.614-6.115,2.386,1.3,1.305,2.386a.01.01,0,0,0,.017,0l1.305-2.386,2.386-1.3a.01.01,0,0,0,0-.018l-2.386-1.3-1.305-2.386a.01.01,0,0,0-.017,0l-1.305,2.386-2.386,1.3A.01.01,0,0,0,68.827,461.536Z" fill="#fff" fill-rule="evenodd"/>
  </g>
</svg>
