<svg xmlns="http://www.w3.org/2000/svg" width="16" height="21" viewBox="0 0 16 21">
  <path id="Caminho_5" data-name="Caminho 5" d="M74.021,131.217a7.818,7.818,0,0,0-.248-2.9,6.029,6.029,0,0,1-.952,2.176,3.084,3.084,0,0,1-1.972.94,2.076,2.076,0,0,0,1.2-1.867,2.154,2.154,0,0,0-4.306,0,2.017,2.017,0,0,0,.2.879,2.513,2.513,0,0,1-.861-1.517s-.83,3.39,1.458,4.985,6.77.224,6.77.224-6.414,4.439-11.167-.392c-4.095-4.161-1.069-9.64-1.069-9.64a4.943,4.943,0,0,0-.131,1.1,1.949,1.949,0,0,0,.325,1.039A15.758,15.758,0,0,1,65,123.413a14.559,14.559,0,0,1,2.384-1.944,9.3,9.3,0,0,0,1.431-1.128c1.721-1.893.666-5.341.666-5.341a8.723,8.723,0,0,1,2.482,3.855,7.071,7.071,0,0,1-.045,2.614c-.193,1.368-.349,2.473,1.045,2.4,2.251-.116.295-3.53.295-3.53s5.107,2.64,4.725,7.257-5.582,5.666-5.582,5.666A5.62,5.62,0,0,0,74.021,131.217Z" transform="translate(-62 -115)" fill="#fff" fill-rule="evenodd"/>
</svg>
