<svg xmlns="http://www.w3.org/2000/svg" width="21" height="18.2" viewBox="0 0 21 18.2">
  <path id="Caminho_7" data-name="Caminho 7" d="M69.33,176.6a7.368,7.368,0,0,0,6.8-4.134c.013-.029-4.365,1.138-4.226.725.062-.184,2.746-1.165,4.7-2.308a4.448,4.448,0,0,0,1.642-2.049,20.878,20.878,0,0,1-2.851,1.152,11.617,11.617,0,0,1-3.627.371,30.472,30.472,0,0,0,6.739-3.03,5.57,5.57,0,0,0,2.344-3.058A22.119,22.119,0,0,1,77.6,165.87a18.479,18.479,0,0,1-5.557,1.1c0-.274,2.333-.916,4.807-2.114a27.164,27.164,0,0,0,3.691-2.343A6.556,6.556,0,0,0,83,158.4a33.184,33.184,0,0,1-3.1,1.789A34.591,34.591,0,0,1,69.33,163.2c-4.032.315-7.33,3.128-7.33,6.78S65.282,176.6,69.33,176.6Z" transform="translate(-62 -158.395)" fill="#fff" fill-rule="evenodd"/>
</svg>
