<svg xmlns="http://www.w3.org/2000/svg" width="20" height="20" viewBox="0 0 20 20">
  <path id="Caminho_1" data-name="Caminho 1" d="M78.712,46.369A8.384,8.384,0,0,0,82,39.826C82,34.952,77.523,31,72,31s-10,3.952-10,8.826a8.343,8.343,0,0,0,3.073,6.365,4.6,4.6,0,0,0-.178,1.278c0,1.95,1.178,3.53,2.632,3.53a2.58,2.58,0,0,0,2.237-1.67A2.579,2.579,0,0,0,72,51a2.486,2.486,0,0,0,2.105-1.412A2.486,2.486,0,0,0,76.211,51c1.453,0,2.632-1.581,2.632-3.53A4.646,4.646,0,0,0,78.712,46.369ZM77.789,40c0,2.475-2.651,4.481-5.921,4.481S65.947,42.476,65.947,40,68.6,35.52,71.868,35.52,77.789,37.526,77.789,40Z" transform="translate(-62 -31)" fill="#fff" fill-rule="evenodd"/>
</svg>
