<svg xmlns="http://www.w3.org/2000/svg" xmlns:xlink="http://www.w3.org/1999/xlink" width="21" height="21" viewBox="0 0 21 21">
  <defs>
    <clipPath id="clip-path">
      <rect id="Retângulo_34" data-name="Retângulo 34" width="21" height="21" transform="translate(62 661)" fill="#fff"/>
    </clipPath>
  </defs>
  <g id="Grupo_4" data-name="Grupo 4" transform="translate(-62 -661)" clip-path="url(#clip-path)">
    <path id="Caminho_34" data-name="Caminho 34" d="M80.7,678.439s-2.648,2.124-7.917,1.245c-4-.667-6.13-5.074-6.13-7.442,0-5.617,4.157-6.9,6.967-6.9s4.644,2.74,4.644,4.861a3.817,3.817,0,0,1-3.835,3.977,2.828,2.828,0,0,1-3.026-3.146A2.061,2.061,0,0,1,73.733,669c1.112,0,1.493.949,1.493,1.765a1.074,1.074,0,0,1-1.161,1.108c-.528,0-.58-.266-.782-.546s.258-1.34-.5-1.34-.9,1.219-.9,1.219a2.571,2.571,0,0,0,2.544,2.311,2.925,2.925,0,0,0,3.031-3.53,4.174,4.174,0,0,0-4.953-3.207c-2.956.373-4.163,3.36-3.631,6.552s4.356,5.041,7.363,4.376,6-2.842,6-8.361-4.78-8.836-10.479-8.289-9.237,5.529-9.011,11.516,5.907,9.247,10.711,9.415a11.363,11.363,0,0,0,7.749-2.612s.662-.591.4-1.052S80.7,678.439,80.7,678.439Z" fill="#fff" fill-rule="evenodd"/>
  </g>
</svg>
