<svg xmlns="http://www.w3.org/2000/svg" width="17.891" height="21" viewBox="0 0 17.891 21">
  <path id="Caminho_11" data-name="Caminho 11" d="M76.035,241.021a.047.047,0,0,1,.067-.012l1.491,1.044a.048.048,0,0,1,.012.067l-2.075,2.964a12.663,12.663,0,0,1,1.7.67s-1.68,2.89-4.53,2.89-4.875-2.694-4.875-2.694A10.236,10.236,0,0,1,69.6,245.1l-2.276-2.713a.048.048,0,0,1,.006-.068l1.394-1.17a.049.049,0,0,1,.068.006l2.882,3.435a6.673,6.673,0,0,1,.752-.043,8.3,8.3,0,0,1,1.084.074Zm.564,7.76a14.173,14.173,0,0,0,1.911-1.961,9.446,9.446,0,0,1,2.939,7.268c0,4.939-5.082,7.912-5.082,7.912a12.348,12.348,0,0,1-3.024-5.56,13.089,13.089,0,0,1,.882-6.56A12.291,12.291,0,0,0,76.6,248.781Zm-8.19,0A14.173,14.173,0,0,1,66.5,246.82a9.446,9.446,0,0,0-2.939,7.268c0,4.939,5.082,7.912,5.082,7.912a12.348,12.348,0,0,0,3.024-5.56,13.089,13.089,0,0,0-.882-6.56A12.294,12.294,0,0,1,68.409,248.781Z" transform="translate(-63.559 -241)" fill="#fff" fill-rule="evenodd"/>
</svg>
