<svg xmlns="http://www.w3.org/2000/svg" width="18.364" height="21" viewBox="0 0 18.364 21">
  <path id="Caminho_15" data-name="Caminho 15" d="M73.513,377.454a1.124,1.124,0,0,0,.36-.471,3.474,3.474,0,0,1,2.182,3.2,3.511,3.511,0,0,1-3.55,3.472,3.589,3.589,0,0,1-2.143-.7c-.2-.093-.356-.182-.487-.254a.966.966,0,0,0-.422-.176c-.245.034-.174.26-.109.464.044.139.085.269.021.322s-.281-.148-.531-.387c-.341-.326-.749-.715-.942-.6-.152.093,0,.343.176.65l.013.023c.076.13.165.262.246.382.164.245.3.442.23.476A2.843,2.843,0,0,1,67.453,383c-.181-.2-.357-.42-.52-.623h0c-.357-.444-.655-.815-.822-.771-.2.053-.049.467.174.866.1.187.227.377.334.541h0c.165.256.291.45.245.474a3.167,3.167,0,0,1-.969-1.16,12.313,12.313,0,0,1-.549-1.183,2.044,2.044,0,0,0-.359-.7c-.274-.1-.274.459-.164,1.265.014.1.036.216.062.328a8.606,8.606,0,0,0,16.792-2.431,8.469,8.469,0,0,0-7.9-8.365,3.885,3.885,0,0,1,.114-.62,20,20,0,0,0,.822-2.292c0-.026.006-.055.009-.086.049-.436.139-1.247-.558-1.247-.372,0-.546.277-.744.594h0a3.776,3.776,0,0,1-.252.369,23.247,23.247,0,0,1-2.515,2.518c-1.394,1.215-2.762,2.213-3.56,2.8h0c-.363.265-.608.444-.683.518a42.269,42.269,0,0,0-2.619,4.251s-.662,1.185-.427,1.426.8.185.8.185,7.627-1.75,8.309-1.888c.184-.037.314-.058.413-.075A1.262,1.262,0,0,0,73.513,377.454Zm-5.392-2.248a13.469,13.469,0,0,0-1.088,1.318,2.984,2.984,0,0,0,1.957-.583,2.275,2.275,0,0,0,.536-1.787A14.688,14.688,0,0,0,68.121,375.206Z" transform="translate(-63.313 -367)" fill="#fff" fill-rule="evenodd"/>
</svg>
