<svg xmlns="http://www.w3.org/2000/svg" width="19.6" height="21" viewBox="0 0 19.6 21">
  <path id="Caminho_21" data-name="Caminho 21" d="M65.619,494.746a2.317,2.317,0,0,1,4.185-.7h.677a2.317,2.317,0,0,1,3.787.7h.567a2.318,2.318,0,0,1,3.353,1.05h1.542a.074.074,0,0,1,.036.01c.07-.007.142-.01.214-.01a2.316,2.316,0,0,1,2.316,2.316v7.072q0,.063,0,.126c-.139,4.819-4.472,8.686-9.8,8.686-5.412,0-9.8-4-9.8-8.925a8.491,8.491,0,0,1,2.689-6.141c0,2.319.035,4.718.216,4.676C66.085,503.5,65.707,496.316,65.619,494.746Z" transform="translate(-62.697 -493)" fill="#fff" fill-rule="evenodd"/>
</svg>
