<svg xmlns="http://www.w3.org/2000/svg" width="21" height="21" viewBox="0 0 21 21">
  <path id="Caminho_23" data-name="Caminho 23" d="M77.133,555.927a38.335,38.335,0,0,1-4.8,0C66.584,555.171,62,550.968,62,545.287a10.5,10.5,0,0,1,21,0,10.13,10.13,0,0,1-2.688,6.873c-.454.5.169.842.8,1.2s1.25.7.884,1.2C81.594,555.1,79.407,555.811,77.133,555.927ZM71.023,544a1.641,1.641,0,0,1-3.281,0,1.6,1.6,0,0,1,.821-1.393A1.447,1.447,0,0,0,70.009,544Zm5.085-1.393A1.447,1.447,0,0,1,74.663,544H73.648a1.641,1.641,0,0,0,3.281,0A1.6,1.6,0,0,0,76.108,542.608Z" transform="translate(-62 -535)" fill="#fff" fill-rule="evenodd"/>
</svg>
