<svg xmlns="http://www.w3.org/2000/svg" width="20.476" height="17.895" viewBox="0 0 20.476 17.895">
  <g id="Grupo_6" data-name="Grupo 6" transform="translate(564.752 -597.578)">
    <path id="Caminho_27" data-name="Caminho 27" d="M77.762,620.6l.065,5.675-4.949,2.376-.061-5.358Z" transform="translate(-627 -23)" fill="#fff" fill-rule="evenodd"/>
    <path id="Caminho_28" data-name="Caminho 28" d="M82.724,629.543l-4.9,2.8-4.9-2.806,4.9-2.574Z" transform="translate(-627 -23)" fill="#fff" fill-rule="evenodd"/>
    <path id="Caminho_29" data-name="Caminho 29" d="M72.05,629.543l-4.9,2.8-4.9-2.806,4.9-2.574Z" transform="translate(-627 -23)" fill="#fff" fill-rule="evenodd"/>
    <path id="Caminho_30" data-name="Caminho 30" d="M67.1,620.578l5.085,2.519-.13,5.488-4.8-2.378Z" transform="translate(-627 -23)" fill="#fff" fill-rule="evenodd"/>
    <path id="Caminho_31" data-name="Caminho 31" d="M77.9,638.422,72.816,635.9l.13-5.488,4.8,2.378Z" transform="translate(-627 -23)" fill="#fff" fill-rule="evenodd"/>
    <path id="Caminho_32" data-name="Caminho 32" d="M67.271,638.473l-.065-5.675,4.949-2.375.061,5.357Z" transform="translate(-627 -23)" fill="#fff" fill-rule="evenodd"/>
  </g>
</svg>
